<svg width="25" height="24" viewBox="0 0 25 24" fill="none" xmlns="http://www.w3.org/2000/svg">
<path d="M14.0633 21C13.8875 21.3031 13.6352 21.5547 13.3316 21.7295C13.028 21.9044 12.6837 21.9965 12.3333 21.9965C11.983 21.9965 11.6387 21.9044 11.3351 21.7295C11.0315 21.5547 10.7792 21.3031 10.6033 21M18.3333 8C18.3333 6.4087 17.7012 4.88258 16.576 3.75736C15.4508 2.63214 13.9246 2 12.3333 2C10.742 2 9.21592 2.63214 8.0907 3.75736C6.96548 4.88258 6.33334 6.4087 6.33334 8C6.33334 15 3.33334 17 3.33334 17H21.3333C21.3333 17 18.3333 15 18.3333 8Z" stroke="#1E1E1E" stroke-width="2.5" stroke-linecap="round" stroke-linejoin="round"/>
</svg>
